<?xml version="1.0" encoding="UTF-8"?>
<svg xmlns="http://www.w3.org/2000/svg" xmlns:xlink="http://www.w3.org/1999/xlink" width="316px" height="316px" viewBox="0 0 316 316" version="1.1">
<g id="surface1">
<rect x="0" y="0" width="316" height="316" style="fill:rgb(3.529412%,63.137255%,63.137255%);fill-opacity:1;stroke:none;"/>
<path style=" stroke:none;fill-rule:nonzero;fill:rgb(0%,9.019608%,9.019608%);fill-opacity:1;" d="M 147.074219 103.476562 L 146.773438 103.367188 L 146.773438 75.617188 L 147.085938 75.339844 L 147.191406 75.167969 L 249.722656 141.625 L 147.0625 103.507812 Z M 147.074219 179.820312 L 147.0625 179.789062 L 249.722656 141.667969 L 147.179688 208.128906 L 147.085938 207.980469 L 146.773438 207.980469 L 146.773438 179.929688 Z M 147.074219 179.820312 "/>
<path style=" stroke:none;fill-rule:nonzero;fill:rgb(0.392157%,31.372549%,31.764706%);fill-opacity:1;" d="M 194.351562 31.171875 L 249.722656 141.625 L 147.191406 75.167969 L 147.0625 75.082031 L 147.085938 75.027344 L 194.019531 31.480469 Z M 249.722656 141.667969 L 194.351562 252.125 L 194.039062 251.824219 L 147.085938 208.269531 L 147.0625 208.214844 L 147.179688 208.128906 Z M 249.722656 141.667969 "/>
<path style=" stroke:none;fill-rule:nonzero;fill:rgb(0.392157%,41.960784%,41.960784%);fill-opacity:1;" d="M 147.0625 75.082031 L 147.191406 75.167969 L 147.085938 75.339844 L 71.992188 75.339844 L 71.316406 75.082031 L 90.070312 31.4375 L 90.167969 31.480469 L 194.019531 31.480469 L 147.085938 75.027344 Z M 147.085938 75.339844 L 146.773438 75.617188 L 146.773438 75.339844 Z M 147.085938 207.980469 L 147.179688 208.128906 L 147.0625 208.214844 L 147.085938 208.269531 L 194.039062 251.824219 L 90.167969 251.824219 L 90.070312 251.867188 L 71.316406 208.214844 L 71.949219 207.980469 L 146.441406 207.980469 L 146.773438 208.289062 L 146.773438 207.980469 Z M 147.085938 207.980469 "/>
<path style=" stroke:none;fill-rule:nonzero;fill:rgb(0.392157%,31.372549%,31.764706%);fill-opacity:1;" d="M 147.0625 103.507812 L 249.722656 141.625 L 249.722656 141.667969 L 147.0625 179.789062 L 147.074219 179.820312 L 146.773438 179.929688 L 146.773438 103.367188 L 147.074219 103.476562 Z M 147.0625 103.507812 "/>
<path style=" stroke:none;fill-rule:nonzero;fill:rgb(0.392157%,41.960784%,41.960784%);fill-opacity:1;" d="M 146.773438 207.980469 L 146.773438 208.289062 L 146.441406 207.980469 Z M 146.773438 207.980469 "/>
<path style=" stroke:none;fill-rule:nonzero;fill:rgb(0%,12.941176%,13.333333%);fill-opacity:1;" d="M 146.773438 179.929688 L 146.773438 207.980469 L 146.441406 207.980469 L 125.082031 188.054688 Z M 146.773438 179.929688 "/>
<path style=" stroke:none;fill-rule:nonzero;fill:rgb(0.392157%,41.960784%,41.960784%);fill-opacity:1;" d="M 146.773438 179.832031 L 146.773438 179.929688 L 125.082031 188.054688 L 75.832031 141.710938 L 75.832031 141.582031 L 125.082031 95.238281 L 146.773438 103.367188 Z M 146.773438 179.832031 "/>
<path style=" stroke:none;fill-rule:nonzero;fill:rgb(0%,12.941176%,13.333333%);fill-opacity:1;" d="M 146.773438 75.617188 L 146.773438 103.367188 L 125.082031 95.238281 Z M 146.773438 75.617188 "/>
<path style=" stroke:none;fill-rule:nonzero;fill:rgb(0.392157%,20.784314%,20.784314%);fill-opacity:1;" d="M 146.773438 75.339844 L 146.773438 75.617188 L 125.082031 95.238281 L 71.992188 75.339844 Z M 146.441406 207.980469 L 71.949219 207.980469 L 125.082031 188.054688 Z M 146.441406 207.980469 "/>
<path style=" stroke:none;fill-rule:nonzero;fill:rgb(100%,100%,100%);fill-opacity:1;" d="M 111.933594 269.441406 L 120.523438 269.441406 L 123.324219 280.21875 L 124.234375 284.484375 L 124.382812 284.484375 L 125.296875 280.21875 L 127.933594 269.441406 L 136.523438 269.441406 L 136.523438 302.480469 L 129.507812 302.480469 L 129.507812 294.703125 C 129.507812 293.71875 129.550781 292.472656 129.636719 290.972656 C 129.722656 289.460938 129.820312 287.90625 129.917969 286.296875 C 130.011719 284.691406 130.140625 283.132812 130.269531 281.644531 C 130.410156 280.152344 130.527344 278.921875 130.625 277.933594 L 130.476562 277.933594 L 127.730469 287.746094 L 126.003906 293.695312 L 122.238281 293.695312 L 120.511719 287.746094 L 117.917969 277.933594 L 117.714844 277.933594 C 117.8125 278.921875 117.941406 280.152344 118.070312 281.644531 C 118.207031 283.132812 118.324219 284.691406 118.421875 286.296875 C 118.519531 287.90625 118.617188 289.472656 118.699219 290.972656 C 118.785156 292.484375 118.828125 293.730469 118.828125 294.703125 L 118.828125 302.480469 L 111.914062 302.480469 Z M 164.894531 295.464844 L 155.84375 295.464844 L 154.214844 302.480469 L 145.273438 302.480469 L 155.234375 269.441406 L 165.804688 269.441406 L 175.769531 302.480469 L 166.515625 302.480469 Z M 163.320312 288.699219 L 162.816406 286.414062 C 162.4375 284.816406 162.054688 283.09375 161.644531 281.238281 C 161.238281 279.371094 160.832031 277.613281 160.421875 275.949219 L 160.21875 275.949219 C 159.84375 277.644531 159.46875 279.414062 159.074219 281.257812 C 158.6875 283.101562 158.300781 284.828125 157.925781 286.414062 L 157.421875 288.699219 Z M 191.316406 285.503906 L 182.320312 269.441406 L 192.078125 269.441406 L 194.714844 274.824219 C 195.089844 275.605469 195.476562 276.445312 195.882812 277.34375 C 196.289062 278.246094 196.730469 279.230469 197.203125 280.316406 L 197.40625 280.316406 C 197.78125 279.230469 198.144531 278.234375 198.519531 277.34375 C 198.898438 276.445312 199.25 275.605469 199.59375 274.824219 L 201.929688 269.441406 L 211.28125 269.441406 L 202.285156 285.910156 L 211.839844 302.480469 L 202.082031 302.480469 L 199.035156 296.582031 C 198.5625 295.703125 198.125 294.824219 197.738281 293.941406 C 197.351562 293.0625 196.933594 292.109375 196.496094 291.101562 L 196.289062 291.101562 C 195.914062 292.121094 195.539062 293.0625 195.144531 293.941406 C 194.757812 294.824219 194.359375 295.703125 193.953125 296.582031 L 191.113281 302.480469 L 181.761719 302.480469 Z M 191.316406 285.503906 "/>
</g>
</svg>
