<?xml version="1.0" encoding="UTF-8"?>
<svg xmlns="http://www.w3.org/2000/svg" xmlns:xlink="http://www.w3.org/1999/xlink" width="316px" height="316px" viewBox="0 0 316 169" version="1.1">
<g id="surface1">
<path style=" stroke:none;fill-rule:nonzero;fill:rgb(23.921569%,85.882353%,52.156863%);fill-opacity:1;" d="M 198.855469 143.742188 C 194.777344 143.742188 191.464844 140.429688 191.464844 136.359375 C 191.464844 132.289062 194.777344 128.976562 198.855469 128.976562 C 202.933594 128.976562 206.246094 132.285156 206.246094 136.359375 C 206.246094 140.429688 202.933594 143.742188 198.855469 143.742188 M 117.144531 143.742188 C 113.070312 143.742188 109.753906 140.429688 109.753906 136.359375 C 109.753906 132.289062 113.066406 128.976562 117.144531 128.976562 C 121.222656 128.976562 124.535156 132.285156 124.535156 136.359375 C 124.535156 140.429688 121.222656 143.742188 117.144531 143.742188 M 201.507812 99.277344 L 216.28125 73.726562 C 217.128906 72.257812 216.625 70.382812 215.15625 69.53125 C 213.6875 68.6875 211.808594 69.191406 210.957031 70.65625 L 195.996094 96.53125 C 184.558594 91.316406 171.710938 88.414062 158 88.414062 C 144.289062 88.414062 131.441406 91.316406 120.003906 96.53125 L 105.042969 70.65625 C 104.191406 69.191406 102.3125 68.6875 100.84375 69.53125 C 99.375 70.382812 98.871094 72.257812 99.71875 73.726562 L 114.492188 99.277344 C 89.125 113.054688 71.773438 138.699219 69.234375 169 L 246.765625 169 C 244.226562 138.703125 226.875 113.054688 201.507812 99.277344 "/>
</g>
</svg>
