<?xml version="1.0" encoding="UTF-8"?>
<svg xmlns="http://www.w3.org/2000/svg" xmlns:xlink="http://www.w3.org/1999/xlink" width="316px" height="316px" viewBox="0 0 316 355" version="1.1">
<g id="surface1">
<path style=" stroke:none;fill-rule:nonzero;fill:rgb(36.078431%,55.294118%,73.72549%);fill-opacity:1;" d="M 315.46875 104.417969 C 315.464844 98.464844 314.191406 93.207031 311.613281 88.691406 C 309.078125 84.25 305.285156 80.53125 300.199219 77.589844 C 258.199219 53.40625 216.15625 29.300781 174.171875 5.09375 C 162.851562 -1.429688 151.878906 -1.191406 140.640625 5.425781 C 123.925781 15.269531 40.226562 63.152344 15.289062 77.574219 C 5.015625 83.511719 0.0195312 92.597656 0.015625 104.40625 C 0 153.035156 0.015625 201.664062 0 250.292969 C 0.00390625 256.117188 1.222656 261.273438 3.6875 265.722656 C 6.222656 270.296875 10.070312 274.117188 15.273438 277.128906 C 40.214844 291.550781 123.925781 339.425781 140.636719 349.273438 C 151.878906 355.894531 162.851562 356.132812 174.175781 349.605469 C 216.164062 325.398438 258.207031 301.292969 300.210938 277.113281 C 305.417969 274.105469 309.261719 270.28125 311.796875 265.710938 C 314.257812 261.261719 315.480469 256.105469 315.484375 250.28125 C 315.484375 250.28125 315.484375 153.050781 315.46875 104.417969 "/>
<path style=" stroke:none;fill-rule:nonzero;fill:rgb(10.196078%,27.45098%,45.490196%);fill-opacity:1;" d="M 158.226562 176.878906 L 3.6875 265.722656 C 6.222656 270.296875 10.070312 274.117188 15.273438 277.128906 C 40.214844 291.550781 123.925781 339.425781 140.636719 349.273438 C 151.878906 355.894531 162.851562 356.132812 174.175781 349.605469 C 216.164062 325.398438 258.207031 301.292969 300.210938 277.113281 C 305.417969 274.105469 309.261719 270.28125 311.796875 265.710938 L 158.226562 176.878906 "/>
<path style=" stroke:none;fill-rule:nonzero;fill:rgb(10.196078%,27.45098%,45.490196%);fill-opacity:1;" d="M 112.453125 203.195312 C 121.445312 218.867188 138.351562 229.441406 157.742188 229.441406 C 177.253906 229.441406 194.253906 218.734375 203.203125 202.890625 L 158.226562 176.878906 L 112.453125 203.195312 "/>
<path style=" stroke:none;fill-rule:nonzero;fill:rgb(10.588235%,34.901961%,55.686275%);fill-opacity:1;" d="M 315.46875 104.417969 C 315.464844 98.464844 314.191406 93.207031 311.613281 88.691406 L 158.226562 176.878906 L 311.796875 265.710938 C 314.257812 261.261719 315.480469 256.105469 315.484375 250.28125 C 315.484375 250.28125 315.484375 153.050781 315.46875 104.417969 "/>
<path style=" stroke:none;fill-rule:nonzero;fill:rgb(100%,100%,100%);fill-opacity:1;" d="M 307.023438 183.226562 L 295.023438 183.226562 L 295.023438 195.210938 L 283.019531 195.210938 L 283.019531 183.226562 L 271.019531 183.226562 L 271.019531 171.246094 L 283.019531 171.246094 L 283.019531 159.261719 L 295.023438 159.261719 L 295.023438 171.246094 L 307.023438 171.246094 L 307.023438 183.226562 M 263.234375 183.226562 L 251.234375 183.226562 L 251.234375 195.210938 L 239.234375 195.210938 L 239.234375 183.226562 L 227.234375 183.226562 L 227.234375 171.246094 L 239.234375 171.246094 L 239.234375 159.261719 L 251.234375 159.261719 L 251.234375 171.246094 L 263.234375 171.246094 L 263.234375 183.226562 "/>
<path style=" stroke:none;fill-rule:nonzero;fill:rgb(100%,100%,100%);fill-opacity:1;" d="M 203.203125 202.890625 C 194.253906 218.734375 177.253906 229.441406 157.742188 229.441406 C 138.351562 229.441406 121.445312 218.867188 112.453125 203.195312 C 107.933594 195.328125 105.5625 186.417969 105.574219 177.351562 C 105.574219 148.582031 128.929688 125.261719 157.742188 125.261719 C 177.007812 125.261719 193.824219 135.703125 202.863281 151.214844 L 248.460938 124.996094 C 230.335938 93.757812 196.5 72.742188 157.742188 72.742188 C 99.878906 72.742188 52.972656 119.578125 52.972656 177.351562 C 52.972656 196.304688 58.023438 214.078125 66.851562 229.410156 C 84.929688 260.8125 118.863281 281.960938 157.742188 281.960938 C 196.691406 281.960938 230.679688 260.730469 248.734375 229.230469 L 203.203125 202.890625 "/>
</g>
</svg>
