<?xml version="1.0" encoding="UTF-8"?>
<svg xmlns="http://www.w3.org/2000/svg" xmlns:xlink="http://www.w3.org/1999/xlink" width="488px" height="316px" viewBox="0 0 488 316" version="1.1">
<g id="surface1">
<path style=" stroke:none;fill-rule:nonzero;fill:rgb(14.901961%,30.196078%,89.411765%);fill-opacity:1;" d="M 111.753906 316 L 20.367188 290.621094 L 0 62.101562 L 223.785156 62.101562 L 203.398438 290.582031 Z M 111.753906 316 "/>
<path style=" stroke:none;fill-rule:nonzero;fill:rgb(16.078431%,39.607843%,94.509804%);fill-opacity:1;" d="M 185.945312 276.035156 L 203.367188 80.785156 L 111.894531 80.785156 L 111.894531 296.574219 Z M 185.945312 276.035156 "/>
<path style=" stroke:none;fill-rule:nonzero;fill:rgb(92.156863%,92.156863%,92.156863%);fill-opacity:1;" d="M 46.6875 165.539062 L 49.199219 193.566406 L 111.894531 193.566406 L 111.894531 165.539062 Z M 46.6875 165.539062 "/>
<path style=" stroke:none;fill-rule:nonzero;fill:rgb(92.156863%,92.156863%,92.156863%);fill-opacity:1;" d="M 41.644531 108.8125 L 44.191406 136.839844 L 111.894531 136.839844 L 111.894531 108.8125 Z M 41.644531 108.8125 "/>
<path style=" stroke:none;fill-rule:nonzero;fill:rgb(92.156863%,92.156863%,92.156863%);fill-opacity:1;" d="M 111.894531 238.328125 L 111.769531 238.363281 L 80.570312 229.933594 L 78.574219 207.582031 L 50.449219 207.582031 L 54.375 251.585938 L 111.765625 267.523438 L 111.894531 267.488281 Z M 111.894531 238.328125 "/>
<path style=" stroke:none;fill-rule:nonzero;fill:rgb(0%,0%,0%);fill-opacity:1;" d="M 52.667969 0 L 86.597656 0 L 86.597656 14.195312 L 66.855469 14.195312 L 66.855469 28.390625 L 86.597656 28.390625 L 86.597656 42.585938 L 52.667969 42.585938 Z M 52.667969 0 "/>
<path style=" stroke:none;fill-rule:nonzero;fill:rgb(0%,0%,0%);fill-opacity:1;" d="M 93.382812 0 L 127.316406 0 L 127.316406 12.34375 L 107.574219 12.34375 L 107.574219 14.8125 L 127.316406 14.8125 L 127.316406 43.203125 L 93.382812 43.203125 L 93.382812 30.242188 L 113.125 30.242188 L 113.125 27.773438 L 93.382812 27.773438 Z M 93.382812 0 "/>
<path style=" stroke:none;fill-rule:nonzero;fill:rgb(0%,0%,0%);fill-opacity:1;" d="M 134.101562 0 L 168.035156 0 L 168.035156 12.34375 L 148.292969 12.34375 L 148.292969 14.8125 L 168.035156 14.8125 L 168.035156 43.203125 L 134.101562 43.203125 L 134.101562 30.242188 L 153.84375 30.242188 L 153.84375 27.773438 L 134.101562 27.773438 Z M 134.101562 0 "/>
<path style=" stroke:none;fill-rule:nonzero;fill:rgb(100%,100%,100%);fill-opacity:1;" d="M 176.917969 165.539062 L 181.976562 108.8125 L 111.796875 108.8125 L 111.796875 136.839844 L 151.273438 136.839844 L 148.722656 165.539062 L 111.796875 165.539062 L 111.796875 193.566406 L 146.292969 193.566406 L 143.042969 229.914062 L 111.796875 238.351562 L 111.796875 267.511719 L 169.230469 251.585938 L 169.652344 246.851562 L 176.234375 173.066406 Z M 176.917969 165.539062 "/>
<path style=" stroke:none;fill-rule:nonzero;fill:rgb(89.411765%,30.196078%,14.901961%);fill-opacity:1;" d="M 488.1875 62.101562 L 467.800781 290.582031 L 376.160156 316 L 284.769531 290.621094 L 264.402344 62.101562 Z M 488.1875 62.101562 "/>
<path style=" stroke:none;fill-rule:nonzero;fill:rgb(94.509804%,39.607843%,16.078431%);fill-opacity:1;" d="M 376.296875 296.574219 L 450.347656 276.035156 L 467.769531 80.785156 L 376.296875 80.785156 Z M 376.296875 296.574219 "/>
<path style=" stroke:none;fill-rule:nonzero;fill:rgb(92.156863%,92.156863%,92.156863%);fill-opacity:1;" d="M 336.664062 136.839844 L 376.296875 136.839844 L 376.296875 108.8125 L 306.046875 108.8125 L 306.714844 116.332031 L 313.601562 193.566406 L 376.296875 193.566406 L 376.296875 165.539062 L 339.222656 165.539062 Z M 336.664062 136.839844 "/>
<path style=" stroke:none;fill-rule:nonzero;fill:rgb(92.156863%,92.156863%,92.156863%);fill-opacity:1;" d="M 342.976562 207.582031 L 314.855469 207.582031 L 318.777344 251.585938 L 376.167969 267.523438 L 376.296875 267.488281 L 376.296875 238.328125 L 376.171875 238.363281 L 344.972656 229.933594 Z M 342.976562 207.582031 "/>
<path style=" stroke:none;fill-rule:nonzero;fill:rgb(0%,0%,0%);fill-opacity:1;" d="M 285.222656 0 L 299.460938 0 L 299.460938 14.070312 L 312.484375 14.070312 L 312.484375 0 L 326.722656 0 L 326.722656 42.613281 L 312.484375 42.613281 L 312.484375 28.34375 L 299.460938 28.34375 L 299.460938 42.613281 L 285.226562 42.613281 L 285.226562 0 Z M 285.222656 0 "/>
<path style=" stroke:none;fill-rule:nonzero;fill:rgb(0%,0%,0%);fill-opacity:1;" d="M 345.445312 14.132812 L 332.910156 14.132812 L 332.910156 0 L 372.222656 0 L 372.222656 14.132812 L 359.683594 14.132812 L 359.683594 42.613281 L 345.445312 42.613281 Z M 345.445312 14.132812 "/>
<path style=" stroke:none;fill-rule:nonzero;fill:rgb(0%,0%,0%);fill-opacity:1;" d="M 378.460938 0 L 393.308594 0 L 402.4375 14.972656 L 411.5625 0 L 426.414062 0 L 426.414062 42.613281 L 412.234375 42.613281 L 412.234375 21.492188 L 402.4375 36.644531 L 402.195312 36.644531 L 392.390625 21.492188 L 392.390625 42.613281 L 378.460938 42.613281 Z M 378.460938 0 "/>
<path style=" stroke:none;fill-rule:nonzero;fill:rgb(0%,0%,0%);fill-opacity:1;" d="M 433.5 0 L 447.738281 0 L 447.738281 28.527344 L 467.761719 28.527344 L 467.761719 42.613281 L 433.5 42.613281 Z M 433.5 0 "/>
<path style=" stroke:none;fill-rule:nonzero;fill:rgb(100%,100%,100%);fill-opacity:1;" d="M 376.199219 193.566406 L 410.695312 193.566406 L 407.445312 229.914062 L 376.199219 238.351562 L 376.199219 267.511719 L 433.632812 251.585938 L 434.054688 246.851562 L 440.636719 173.066406 L 441.320312 165.539062 L 376.199219 165.539062 Z M 376.199219 193.566406 "/>
<path style=" stroke:none;fill-rule:nonzero;fill:rgb(100%,100%,100%);fill-opacity:1;" d="M 376.199219 136.773438 L 376.199219 136.839844 L 443.871094 136.839844 L 444.433594 130.539062 L 445.707031 116.332031 L 446.378906 108.8125 L 376.199219 108.8125 Z M 376.199219 136.773438 "/>
</g>
</svg>
