<?xml version="1.0" encoding="UTF-8"?>
<svg xmlns="http://www.w3.org/2000/svg" xmlns:xlink="http://www.w3.org/1999/xlink" width="316px" height="316px" viewBox="0 0 316 316" version="1.1">
<g id="surface1">
<rect x="0" y="0" width="316" height="316" style="fill:rgb(100%,100%,100%);fill-opacity:1;stroke:none;"/>
<path style=" stroke:none;fill-rule:evenodd;fill:rgb(0%,40.392157%,54.901961%);fill-opacity:1;" d="M 13.941406 210.210938 L 23.523438 210.210938 L 23.523438 172.46875 L 38.300781 205.382812 C 40.054688 209.332031 42.394531 210.722656 47.078125 210.722656 C 51.757812 210.722656 54.097656 209.332031 55.855469 205.382812 L 70.628906 172.46875 L 70.628906 210.210938 L 80.136719 210.210938 L 80.136719 172.542969 C 80.136719 168.886719 78.671875 167.125 75.675781 166.175781 C 68.433594 163.910156 63.53125 165.882812 61.339844 170.785156 L 46.855469 203.191406 L 32.8125 170.785156 C 30.691406 165.882812 25.71875 163.910156 18.476562 166.175781 C 15.40625 167.125 13.941406 168.882812 13.941406 172.542969 Z M 88.109375 179.488281 L 97.617188 179.488281 L 97.617188 200.261719 C 97.546875 201.433594 97.984375 204.066406 103.25 204.140625 C 105.882812 204.210938 123.804688 204.140625 123.949219 204.140625 L 123.949219 179.414062 L 133.53125 179.414062 C 133.605469 179.414062 133.53125 213.132812 133.53125 213.28125 C 133.605469 221.621094 123.21875 223.375 118.464844 223.519531 L 88.328125 223.519531 L 88.328125 217.085938 C 88.328125 217.085938 118.394531 217.160156 118.464844 217.085938 C 124.609375 216.5 123.878906 213.429688 123.878906 212.40625 L 123.878906 209.914062 L 103.617188 209.914062 C 94.179688 209.773438 88.183594 205.671875 88.109375 200.917969 C 88.109375 200.480469 88.328125 179.710938 88.109375 179.488281 Z M 293.574219 155.570312 C 287.722656 155.425781 283.261719 155.9375 279.382812 157.617188 C 278.289062 158.058594 276.605469 158.058594 276.386719 159.449219 C 276.972656 160.03125 277.117188 160.980469 277.554688 161.789062 C 278.503906 163.253906 280.042969 165.226562 281.433594 166.25 C 282.894531 167.421875 284.433594 168.589844 286.039062 169.613281 C 288.964844 171.367188 292.183594 172.320312 294.890625 174.078125 C 296.574219 175.101562 298.179688 176.421875 299.792969 177.589844 C 300.519531 178.175781 301.109375 179.054688 302.058594 179.417969 L 302.058594 179.273438 C 301.546875 178.613281 301.398438 177.664062 300.960938 176.929688 L 298.765625 174.734375 C 296.648438 171.957031 293.9375 169.46875 291.085938 167.421875 C 288.816406 165.8125 283.699219 163.542969 282.746094 160.910156 C 282.671875 160.835938 282.597656 160.835938 282.597656 160.765625 C 284.210938 160.542969 286.113281 159.960938 287.574219 159.59375 C 290.0625 158.9375 292.328125 159.082031 294.886719 158.421875 C 296.058594 158.054688 297.230469 157.765625 298.402344 157.398438 L 298.402344 156.738281 C 297.085938 155.421875 296.207031 153.59375 294.746094 152.425781 C 291.015625 149.207031 286.917969 146.058594 282.75 143.425781 C 280.40625 141.890625 277.554688 140.941406 275.070312 139.699219 C 274.261719 139.332031 272.800781 139.113281 272.21875 138.382812 C 270.898438 136.773438 270.242188 134.648438 269.21875 132.75 C 267.070312 128.578125 265.070312 124.332031 263.21875 120.019531 C 261.976562 117.167969 261.097656 114.316406 259.5625 111.679688 C 251.957031 99.246094 243.835938 91.714844 231.183594 84.324219 C 228.476562 82.789062 225.261719 82.132812 221.820312 81.328125 C 219.992188 81.179688 218.164062 81.105469 216.335938 80.960938 C 215.238281 80.519531 214.070312 79.132812 212.96875 78.472656 C 208.800781 75.839844 198.046875 70.058594 194.972656 77.667969 C 193 82.421875 197.902344 87.101562 199.65625 89.519531 C 200.902344 91.199219 202.433594 93.105469 203.3125 95.003906 C 203.894531 96.246094 203.96875 97.492188 204.484375 98.808594 C 205.726562 102.097656 206.75 105.683594 208.285156 108.679688 C 209.089844 110.21875 209.964844 111.828125 210.992188 113.21875 C 211.578125 114.023438 212.675781 114.386719 212.820312 115.703125 C 211.792969 117.167969 211.722656 119.363281 211.140625 121.1875 C 208.578125 129.457031 209.527344 139.621094 213.332031 145.765625 C 214.503906 147.59375 217.210938 151.617188 221.015625 150.082031 C 224.304688 148.691406 223.574219 144.59375 224.523438 140.863281 C 224.746094 140.058594 224.597656 139.476562 225.035156 138.890625 L 225.035156 139.035156 C 225.988281 141.082031 227.011719 143.058594 228.035156 145.03125 C 230.230469 148.617188 234.179688 152.421875 237.546875 154.90625 C 239.226562 156.222656 240.617188 158.492188 242.882812 159.222656 L 242.882812 159.074219 L 242.664062 159.074219 C 242.226562 158.417969 241.566406 158.125 241.054688 157.613281 C 239.738281 156.296875 238.277344 154.683594 237.179688 153.222656 C 234.183594 149.125 231.476562 144.589844 228.988281 139.910156 C 227.816406 137.640625 226.792969 135.15625 225.84375 132.886719 C 225.476562 132.011719 225.476562 130.695312 224.671875 130.179688 C 223.574219 131.863281 222.039062 133.253906 221.160156 135.230469 C 219.84375 138.375 219.625 142.25 219.1875 146.203125 C 218.890625 146.347656 218.964844 146.273438 218.816406 146.421875 C 216.480469 145.835938 215.671875 143.421875 214.796875 141.375 C 212.675781 136.179688 212.234375 127.84375 214.136719 121.84375 C 214.648438 120.308594 216.917969 115.480469 215.96875 114.015625 C 215.527344 112.625 214.136719 111.75 213.332031 110.652344 C 212.308594 109.335938 211.359375 107.582031 210.628906 106.042969 C 208.875 101.949219 208.066406 97.414062 206.164062 93.316406 C 205.214844 91.34375 203.753906 89.367188 202.507812 87.683594 C 201.117188 85.710938 199.582031 84.320312 198.488281 81.980469 C 198.121094 81.175781 197.609375 79.859375 198.121094 78.980469 C 198.339844 78.394531 198.5625 78.175781 199.144531 77.957031 C 200.09375 77.222656 202.800781 78.25 203.824219 78.613281 C 206.457031 79.785156 208.726562 80.808594 210.992188 82.34375 C 212.089844 83.074219 213.191406 84.464844 214.507812 84.832031 L 215.96875 84.832031 C 218.3125 85.34375 220.941406 84.976562 223.136719 85.636719 C 227.011719 86.804688 230.523438 88.632812 233.671875 90.683594 C 243.324219 96.753906 251.152344 105.386719 256.5625 115.699219 C 257.441406 117.382812 257.808594 118.917969 258.539062 120.671875 C 260.078125 124.257812 262.050781 127.914062 263.585938 131.351562 C 265.050781 134.863281 266.585938 138.375 268.707031 141.226562 C 269.878906 142.761719 274.265625 143.566406 276.238281 144.371094 C 277.628906 144.957031 279.894531 145.613281 281.214844 146.417969 C 283.773438 147.882812 286.1875 149.710938 288.601562 151.394531 C 289.769531 152.207031 293.425781 154.035156 293.574219 155.570312 Z M 293.574219 155.570312 "/>
<path style=" stroke:none;fill-rule:evenodd;fill:rgb(0%,40.392157%,54.901961%);fill-opacity:1;" d="M 218.964844 92.007812 C 217.953125 92.007812 216.949219 92.132812 215.96875 92.375 L 215.96875 92.523438 L 216.1875 92.523438 C 216.773438 93.691406 217.796875 94.496094 218.527344 95.519531 C 219.039062 96.691406 219.625 97.859375 220.136719 99.03125 L 220.355469 98.8125 C 221.378906 98.15625 221.820312 96.984375 221.820312 95.15625 C 221.453125 94.714844 221.378906 94.207031 221.015625 93.691406 C 220.503906 92.960938 219.625 92.59375 218.964844 92.007812 Z M 218.964844 92.007812 "/>
<path style=" stroke:none;fill-rule:evenodd;fill:rgb(80.784314%,54.509804%,17.254902%);fill-opacity:1;" d="M 140.921875 210.210938 L 168.347656 210.210938 C 171.566406 210.210938 174.710938 209.554688 177.199219 208.382812 C 181.292969 206.484375 183.34375 203.921875 183.34375 200.554688 L 183.34375 193.535156 C 183.34375 190.832031 181.003906 188.199219 176.542969 186.515625 C 174.128906 185.5625 171.203125 185.125 168.347656 185.125 L 156.792969 185.125 C 152.917969 185.125 151.089844 183.953125 150.648438 181.394531 C 150.574219 181.101562 150.574219 180.808594 150.574219 180.515625 L 150.574219 176.199219 C 150.574219 175.910156 150.574219 175.6875 150.648438 175.398438 C 151.089844 173.421875 152.113281 172.835938 155.476562 172.542969 C 155.769531 172.542969 156.132812 172.472656 156.429688 172.472656 L 183.710938 172.472656 L 183.710938 166.109375 L 156.867188 166.109375 C 152.988281 166.109375 151.015625 166.398438 149.1875 166.910156 C 143.480469 168.738281 140.996094 171.519531 140.996094 176.421875 L 140.996094 181.980469 C 140.996094 186.296875 145.894531 189.953125 154.015625 190.832031 C 154.964844 190.832031 155.84375 190.902344 156.792969 190.902344 L 166.667969 190.902344 C 167.035156 190.902344 167.398438 190.902344 167.691406 190.976562 C 170.765625 191.269531 172.007812 191.78125 172.957031 192.875 C 173.46875 193.460938 173.691406 193.972656 173.691406 194.632812 L 173.691406 200.191406 C 173.691406 200.851562 173.25 201.730469 172.300781 202.460938 C 171.492188 203.191406 170.105469 203.632812 168.277344 203.777344 C 167.910156 203.777344 167.621094 203.851562 167.25 203.851562 L 140.921875 203.851562 Z M 242.882812 199.089844 C 242.882812 205.675781 247.710938 209.332031 257.585938 210.0625 C 258.464844 210.136719 259.414062 210.210938 260.292969 210.210938 L 285.160156 210.210938 L 285.160156 203.84375 L 260.144531 203.84375 C 254.511719 203.84375 252.390625 202.453125 252.390625 199.089844 L 252.390625 166.105469 L 242.882812 166.105469 Z M 189.414062 199.457031 L 189.414062 176.785156 C 189.414062 171.003906 193.4375 167.496094 201.484375 166.398438 C 202.289062 166.25 203.242188 166.25 204.042969 166.25 L 222.183594 166.25 C 223.058594 166.25 223.867188 166.25 224.816406 166.398438 C 232.789062 167.496094 236.882812 171.003906 236.882812 176.785156 L 236.882812 199.457031 C 236.882812 204.140625 235.128906 206.625 231.179688 208.234375 L 240.613281 216.722656 L 229.5 216.722656 L 221.890625 209.917969 L 214.207031 210.355469 L 204.042969 210.355469 C 202.289062 210.355469 200.457031 210.140625 198.410156 209.554688 C 192.339844 207.941406 189.414062 204.722656 189.414062 199.457031 Z M 199.730469 198.875 C 199.730469 199.238281 199.800781 199.53125 199.875 199.898438 C 200.460938 202.53125 202.945312 203.996094 206.675781 203.996094 L 215.382812 203.996094 L 207.410156 196.824219 L 218.527344 196.824219 L 225.476562 203.042969 C 226.722656 202.382812 227.597656 201.359375 227.890625 200.042969 C 227.964844 199.679688 227.964844 199.386719 227.964844 199.09375 L 227.964844 177.296875 C 227.964844 177.074219 227.964844 176.785156 227.890625 176.492188 C 227.304688 174.003906 224.820312 172.617188 221.160156 172.617188 L 206.679688 172.617188 C 202.433594 172.617188 199.730469 174.445312 199.730469 177.296875 Z M 289.550781 210.210938 L 290.941406 210.210938 L 290.941406 204.945312 L 292.84375 204.945312 L 292.84375 203.847656 L 287.648438 203.847656 L 287.648438 204.945312 L 289.550781 204.945312 Z M 300.230469 210.210938 L 301.472656 210.210938 L 301.472656 203.847656 L 299.570312 203.847656 L 297.890625 208.238281 L 296.210938 203.847656 L 294.234375 203.847656 L 294.234375 210.210938 L 295.550781 210.210938 L 295.550781 205.382812 L 297.378906 210.210938 L 298.332031 210.210938 L 300.160156 205.382812 L 300.234375 205.382812 L 300.234375 210.210938 Z M 300.230469 210.210938 "/>
<path style=" stroke:none;fill-rule:evenodd;fill:rgb(0%,40.392157%,54.901961%);fill-opacity:1;" d="M 19.71875 151.035156 L 14.378906 126.3125 L 17.085938 126.3125 L 20.15625 142.550781 C 20.523438 144.234375 20.816406 145.914062 21.035156 147.597656 L 21.988281 142.988281 L 25.863281 126.3125 L 29.007812 126.3125 L 31.933594 138.820312 C 32.667969 141.890625 33.179688 144.816406 33.542969 147.597656 C 33.761719 145.988281 34.128906 144.160156 34.566406 142.183594 L 37.710938 126.3125 L 40.492188 126.3125 L 34.863281 151.035156 L 32.300781 151.035156 L 27.984375 132.238281 L 27.328125 129.3125 C 27.179688 130.40625 26.960938 131.359375 26.742188 132.238281 L 22.425781 151.035156 Z M 42.175781 139.039062 C 42.175781 134.796875 43.128906 131.578125 44.953125 129.3125 C 46.785156 127.042969 49.125 125.945312 51.90625 125.945312 C 53.660156 125.945312 55.34375 126.386719 56.804688 127.410156 C 58.265625 128.433594 59.4375 129.894531 60.316406 131.796875 C 61.121094 133.773438 61.558594 136.039062 61.558594 138.746094 C 61.558594 142.402344 60.753906 145.328125 59.070312 147.667969 C 57.242188 150.230469 54.832031 151.472656 51.90625 151.472656 C 48.902344 151.472656 46.492188 150.15625 44.664062 147.59375 C 42.980469 145.183594 42.175781 142.332031 42.175781 139.039062 Z M 44.953125 139.039062 C 44.953125 142.113281 45.613281 144.453125 46.929688 146.136719 C 48.320312 147.816406 49.929688 148.695312 51.832031 148.695312 C 53.804688 148.695312 55.488281 147.816406 56.804688 146.136719 C 58.121094 144.453125 58.78125 141.96875 58.78125 138.675781 C 58.78125 136.480469 58.488281 134.652344 57.753906 132.972656 C 57.242188 131.65625 56.4375 130.628906 55.414062 129.898438 C 54.402344 129.136719 53.167969 128.722656 51.902344 128.730469 C 49.851562 128.730469 48.171875 129.53125 46.929688 131.214844 C 45.613281 132.894531 44.953125 135.527344 44.953125 139.039062 Z M 64.921875 151.035156 L 64.921875 126.3125 L 73.917969 126.3125 C 75.746094 126.3125 77.136719 126.53125 78.015625 127.042969 C 78.96875 127.484375 79.699219 128.214844 80.210938 129.3125 C 80.796875 130.40625 81.089844 131.652344 81.089844 133.039062 C 81.089844 134.945312 80.648438 136.40625 79.625 137.578125 C 78.671875 138.746094 77.285156 139.476562 75.382812 139.84375 C 76.1875 140.285156 76.699219 140.722656 77.140625 141.160156 C 77.945312 142.109375 78.601562 143.136719 79.261719 144.304688 L 82.769531 151.035156 L 79.40625 151.035156 L 76.699219 145.914062 C 75.601562 143.9375 74.871094 142.550781 74.285156 141.890625 C 73.773438 141.160156 73.261719 140.644531 72.75 140.425781 C 72.238281 140.207031 71.582031 140.058594 70.703125 140.058594 L 67.632812 140.058594 L 67.632812 151.03125 L 64.921875 151.03125 Z M 67.628906 137.210938 L 73.335938 137.210938 C 74.578125 137.210938 75.527344 137.066406 76.1875 136.773438 C 76.84375 136.480469 77.355469 135.964844 77.796875 135.382812 C 78.160156 134.722656 78.304688 133.917969 78.304688 133.039062 C 78.304688 131.796875 77.941406 130.847656 77.210938 130.117188 C 76.480469 129.382812 75.453125 129.019531 73.992188 129.019531 L 67.628906 129.019531 Z M 85.257812 151.035156 L 85.257812 126.3125 L 87.964844 126.3125 L 87.964844 138.601562 L 97.984375 126.3125 L 101.640625 126.3125 L 93.082031 136.332031 L 102.007812 151.035156 L 98.421875 151.035156 L 91.257812 138.601562 L 87.964844 142.476562 L 87.964844 151.035156 Z M 103.25 143.0625 L 105.8125 142.84375 C 105.957031 144.160156 106.25 145.257812 106.761719 145.988281 C 107.203125 146.792969 107.933594 147.378906 108.808594 147.816406 C 109.6875 148.328125 110.710938 148.546875 111.808594 148.546875 C 113.417969 148.546875 114.589844 148.109375 115.46875 147.378906 C 116.34375 146.574219 116.785156 145.550781 116.785156 144.304688 C 116.785156 143.574219 116.636719 142.988281 116.34375 142.40625 C 116.054688 141.894531 115.539062 141.453125 114.882812 141.089844 C 114.222656 140.722656 112.832031 140.210938 110.710938 139.625 C 108.808594 139.039062 107.421875 138.457031 106.617188 137.871094 C 105.800781 137.347656 105.144531 136.613281 104.714844 135.75 C 104.273438 134.871094 104.054688 133.847656 104.054688 132.75 C 104.054688 130.699219 104.714844 129.09375 105.957031 127.847656 C 107.273438 126.53125 109.027344 125.945312 111.222656 125.945312 C 112.683594 125.945312 114 126.238281 115.171875 126.824219 C 116.269531 127.410156 117.148438 128.285156 117.804688 129.382812 C 118.445312 130.601562 118.769531 131.960938 118.753906 133.332031 L 116.195312 133.554688 C 116.121094 131.945312 115.609375 130.773438 114.804688 129.96875 C 113.925781 129.164062 112.828125 128.800781 111.292969 128.800781 C 109.757812 128.800781 108.585938 129.164062 107.855469 129.824219 C 107.050781 130.457031 106.589844 131.433594 106.613281 132.457031 C 106.613281 133.480469 106.90625 134.210938 107.492188 134.796875 C 108.074219 135.308594 109.390625 135.894531 111.441406 136.480469 C 113.488281 136.992188 114.878906 137.503906 115.683594 137.871094 C 116.925781 138.527344 117.875 139.332031 118.460938 140.355469 C 119.121094 141.382812 119.414062 142.625 119.414062 144.015625 C 119.421875 145.375 119.066406 146.710938 118.386719 147.890625 C 117.730469 149.058594 116.851562 149.9375 115.679688 150.523438 C 114.585938 151.179688 113.195312 151.472656 111.585938 151.472656 C 109.097656 151.472656 107.050781 150.742188 105.585938 149.207031 C 104.125 147.671875 103.324219 145.621094 103.25 143.0625 Z M 135.289062 151.035156 L 129.949219 126.3125 L 132.65625 126.3125 L 135.726562 142.550781 C 136.09375 144.234375 136.386719 145.914062 136.605469 147.597656 L 137.558594 142.988281 L 141.433594 126.3125 L 144.578125 126.3125 L 147.503906 138.820312 C 148.191406 141.714844 148.726562 144.644531 149.113281 147.597656 C 149.332031 145.988281 149.699219 144.160156 150.0625 142.183594 L 153.28125 126.3125 L 156.0625 126.3125 L 150.429688 151.035156 L 147.867188 151.035156 L 143.550781 132.238281 L 142.894531 129.3125 C 142.75 130.40625 142.527344 131.359375 142.308594 132.238281 L 137.996094 151.035156 Z M 158.988281 151.035156 L 158.988281 126.3125 L 161.695312 126.3125 L 161.695312 151.035156 Z M 171.566406 151.035156 L 171.566406 129.238281 L 164.910156 129.238281 L 164.910156 126.3125 L 180.929688 126.3125 L 180.929688 129.238281 L 174.203125 129.238281 L 174.203125 151.035156 Z M 183.566406 151.035156 L 183.566406 126.3125 L 186.269531 126.3125 L 186.269531 136.480469 L 196.800781 136.480469 L 196.800781 126.3125 L 199.511719 126.3125 L 199.511719 151.035156 L 196.800781 151.035156 L 196.800781 139.40625 L 186.269531 139.40625 L 186.269531 151.035156 Z M 183.566406 151.035156 "/>
</g>
</svg>
