<?xml version="1.0" encoding="UTF-8"?>
<svg xmlns="http://www.w3.org/2000/svg" xmlns:xlink="http://www.w3.org/1999/xlink" width="316px" height="316px" viewBox="0 0 316 126" version="1.1">
<defs>
<clipPath id="clip1">
  <path d="M 0 107.328125 L 12 107.328125 L 12 125.808594 L 0 125.808594 Z M 0 107.328125 "/>
</clipPath>
<clipPath id="clip2">
  <path d="M 18.445312 107.328125 L 30.53125 107.328125 L 30.53125 125.808594 L 18.445312 125.808594 Z M 18.445312 107.328125 "/>
</clipPath>
<clipPath id="clip3">
  <path d="M 36.257812 107.328125 L 57.246094 107.328125 L 57.246094 125.808594 L 36.257812 125.808594 Z M 36.257812 107.328125 "/>
</clipPath>
<clipPath id="clip4">
  <path d="M 64 107.328125 L 74.421875 107.328125 L 74.421875 125.808594 L 64 125.808594 Z M 64 107.328125 "/>
</clipPath>
<clipPath id="clip5">
  <path d="M 81.417969 107.328125 L 94 107.328125 L 94 125.808594 L 81.417969 125.808594 Z M 81.417969 107.328125 "/>
</clipPath>
<clipPath id="clip6">
  <path d="M 112 107.328125 L 124 107.328125 L 124 125.808594 L 112 125.808594 Z M 112 107.328125 "/>
</clipPath>
<clipPath id="clip7">
  <path d="M 131.03125 107.328125 L 141 107.328125 L 141 125.808594 L 131.03125 125.808594 Z M 131.03125 107.328125 "/>
</clipPath>
<clipPath id="clip8">
  <path d="M 158.382812 107.328125 L 171 107.328125 L 171 125.808594 L 158.382812 125.808594 Z M 158.382812 107.328125 "/>
</clipPath>
<clipPath id="clip9">
  <path d="M 177.464844 107.328125 L 181.917969 107.328125 L 181.917969 125.808594 L 177.464844 125.808594 Z M 177.464844 107.328125 "/>
</clipPath>
<clipPath id="clip10">
  <path d="M 188.277344 107.328125 L 205.449219 107.328125 L 205.449219 125.808594 L 188.277344 125.808594 Z M 188.277344 107.328125 "/>
</clipPath>
<clipPath id="clip11">
  <path d="M 212 107.328125 L 223.898438 107.328125 L 223.898438 125.808594 L 212 125.808594 Z M 212 107.328125 "/>
</clipPath>
<clipPath id="clip12">
  <path d="M 229.621094 107.328125 L 239 107.328125 L 239 125.808594 L 229.621094 125.808594 Z M 229.621094 107.328125 "/>
</clipPath>
<clipPath id="clip13">
  <path d="M 245 107.328125 L 249 107.328125 L 249 125.808594 L 245 125.808594 Z M 245 107.328125 "/>
</clipPath>
<clipPath id="clip14">
  <path d="M 255.0625 107.328125 L 267.785156 107.328125 L 267.785156 125.808594 L 255.0625 125.808594 Z M 255.0625 107.328125 "/>
</clipPath>
<clipPath id="clip15">
  <path d="M 275 107.328125 L 279 107.328125 L 279 125.808594 L 275 125.808594 Z M 275 107.328125 "/>
</clipPath>
<clipPath id="clip16">
  <path d="M 285 107.328125 L 297 107.328125 L 297 125.808594 L 285 125.808594 Z M 285 107.328125 "/>
</clipPath>
<clipPath id="clip17">
  <path d="M 302.132812 107.328125 L 315.980469 107.328125 L 315.980469 125.808594 L 302.132812 125.808594 Z M 302.132812 107.328125 "/>
</clipPath>
</defs>
<g id="surface1">
<g clip-path="url(#clip1)" clip-rule="nonzero">
<path style=" stroke:none;fill-rule:evenodd;fill:rgb(13.72549%,12.156863%,12.54902%);fill-opacity:1;" d="M 5.46875 115.761719 L 3.523438 115.761719 L 3.523438 110.699219 L 5.46875 110.699219 C 7.230469 110.699219 8.15625 111.589844 8.15625 113.273438 C 8.15625 114.964844 7.230469 115.761719 5.46875 115.761719 Z M 5.097656 107.941406 L 0 107.941406 L 0 125.808594 L 3.523438 125.808594 L 3.523438 118.609375 L 5.097656 118.609375 C 9.546875 118.609375 11.679688 116.652344 11.679688 113.273438 C 11.679688 109.898438 9.546875 107.941406 5.097656 107.941406 "/>
</g>
<g clip-path="url(#clip2)" clip-rule="nonzero">
<path style=" stroke:none;fill-rule:evenodd;fill:rgb(13.72549%,12.156863%,12.54902%);fill-opacity:1;" d="M 26.695312 120.207031 C 26.695312 122.253906 25.859375 122.785156 24.375 122.785156 C 22.988281 122.785156 22.0625 122.253906 22.0625 120.207031 L 22.0625 112.921875 C 22.0625 110.964844 22.988281 110.429688 24.375 110.429688 C 25.859375 110.429688 26.695312 110.964844 26.695312 112.921875 Z M 24.375 107.40625 C 20.949219 107.40625 18.539062 109.007812 18.539062 113.363281 L 18.539062 119.765625 C 18.539062 124.207031 20.949219 125.808594 24.375 125.808594 C 27.898438 125.808594 30.308594 124.207031 30.308594 119.765625 L 30.308594 113.363281 C 30.308594 109.007812 27.898438 107.40625 24.375 107.40625 "/>
</g>
<g clip-path="url(#clip3)" clip-rule="nonzero">
<path style=" stroke:none;fill-rule:evenodd;fill:rgb(13.72549%,12.156863%,12.54902%);fill-opacity:1;" d="M 51.351562 119.589844 L 51.257812 119.589844 L 48.660156 107.941406 L 45.234375 107.941406 L 42.730469 119.589844 L 42.636719 119.589844 L 40.132812 107.941406 L 36.796875 107.941406 L 40.691406 125.808594 L 44.121094 125.808594 L 46.996094 113.542969 L 49.589844 125.808594 L 53.015625 125.808594 L 57.1875 107.941406 L 53.851562 107.941406 L 51.351562 119.589844 "/>
</g>
<g clip-path="url(#clip4)" clip-rule="nonzero">
<path style=" stroke:none;fill-rule:evenodd;fill:rgb(13.72549%,12.156863%,12.54902%);fill-opacity:1;" d="M 67.570312 118.074219 L 72.296875 118.074219 L 72.296875 115.054688 L 67.570312 115.054688 L 67.570312 110.964844 L 73.78125 110.964844 L 73.78125 107.941406 L 64.050781 107.941406 L 64.050781 125.808594 L 74.058594 125.808594 L 74.058594 122.789062 L 67.570312 122.789062 L 67.570312 118.074219 "/>
</g>
<g clip-path="url(#clip5)" clip-rule="nonzero">
<path style=" stroke:none;fill-rule:evenodd;fill:rgb(13.72549%,12.156863%,12.54902%);fill-opacity:1;" d="M 87.039062 115.675781 L 85.179688 115.675781 L 85.179688 110.699219 L 87.039062 110.699219 C 88.613281 110.699219 89.539062 111.5 89.539062 113.1875 C 89.539062 114.964844 88.613281 115.675781 87.039062 115.675781 Z M 93.058594 113.273438 C 93.058594 109.898438 91.023438 107.941406 86.757812 107.941406 L 81.566406 107.941406 L 81.566406 125.808594 L 85.179688 125.808594 L 85.179688 118.519531 L 86.851562 118.519531 L 90 125.808594 L 93.804688 125.808594 L 90.28125 117.808594 C 92.320312 117.097656 93.058594 115.496094 93.058594 113.273438 "/>
</g>
<g clip-path="url(#clip6)" clip-rule="nonzero">
<path style=" stroke:none;fill-rule:evenodd;fill:rgb(13.72549%,12.156863%,12.54902%);fill-opacity:1;" d="M 120.402344 120.207031 C 120.402344 122.253906 119.476562 122.785156 117.992188 122.785156 C 116.605469 122.785156 115.679688 122.253906 115.679688 120.207031 L 115.679688 112.921875 C 115.679688 110.964844 116.605469 110.429688 117.992188 110.429688 C 119.476562 110.429688 120.402344 110.964844 120.402344 112.921875 Z M 117.992188 107.40625 C 114.566406 107.40625 112.15625 109.007812 112.15625 113.363281 L 112.15625 119.765625 C 112.15625 124.207031 114.566406 125.808594 117.992188 125.808594 C 121.515625 125.808594 123.925781 124.207031 123.925781 119.765625 L 123.925781 113.363281 C 123.925781 109.007812 121.515625 107.40625 117.992188 107.40625 "/>
</g>
<g clip-path="url(#clip7)" clip-rule="nonzero">
<path style=" stroke:none;fill-rule:evenodd;fill:rgb(13.72549%,12.156863%,12.54902%);fill-opacity:1;" d="M 131.4375 125.808594 L 135.050781 125.808594 L 135.050781 118.074219 L 139.5 118.074219 L 139.5 115.054688 L 135.050781 115.054688 L 135.050781 110.964844 L 140.796875 110.964844 L 140.796875 107.941406 L 131.4375 107.941406 L 131.4375 125.808594 "/>
</g>
<g clip-path="url(#clip8)" clip-rule="nonzero">
<path style=" stroke:none;fill-rule:evenodd;fill:rgb(13.72549%,12.156863%,12.54902%);fill-opacity:1;" d="M 162.765625 112.207031 C 162.765625 110.964844 163.414062 110.25 164.710938 110.25 C 165.914062 110.25 166.75 110.964844 167.304688 112.652344 L 170.550781 111.765625 C 169.902344 109.183594 167.953125 107.40625 164.804688 107.40625 C 161.09375 107.40625 159.148438 109.363281 159.148438 112.386719 C 159.148438 117.453125 167.121094 117.453125 167.121094 120.832031 C 167.121094 122.164062 166.195312 122.960938 164.988281 122.960938 C 163.878906 122.960938 162.578125 122.164062 162.207031 120.03125 L 158.683594 120.742188 C 159.613281 124.296875 161.835938 125.808594 164.804688 125.808594 C 168.511719 125.808594 170.734375 123.765625 170.734375 120.652344 C 170.734375 115.050781 162.765625 114.875 162.765625 112.207031 "/>
</g>
<g clip-path="url(#clip9)" clip-rule="nonzero">
<path style=" stroke:none;fill-rule:evenodd;fill:rgb(13.72549%,12.156863%,12.54902%);fill-opacity:1;" d="M 177.875 125.808594 L 181.488281 125.808594 L 181.488281 107.941406 L 177.875 107.941406 L 177.875 125.808594 "/>
</g>
<g clip-path="url(#clip10)" clip-rule="nonzero">
<path style=" stroke:none;fill-rule:evenodd;fill:rgb(13.72549%,12.156863%,12.54902%);fill-opacity:1;" d="M 196.964844 119.675781 L 196.875 119.675781 L 193.722656 107.941406 L 188.714844 107.941406 L 188.714844 125.808594 L 191.773438 125.808594 L 191.773438 111.765625 L 195.578125 125.808594 L 198.265625 125.808594 L 202.0625 111.765625 L 202.15625 111.765625 L 202.15625 125.808594 L 205.21875 125.808594 L 205.21875 107.941406 L 200.210938 107.941406 L 196.964844 119.675781 "/>
</g>
<g clip-path="url(#clip11)" clip-rule="nonzero">
<path style=" stroke:none;fill-rule:evenodd;fill:rgb(13.72549%,12.156863%,12.54902%);fill-opacity:1;" d="M 217.636719 115.761719 L 215.691406 115.761719 L 215.691406 110.699219 L 217.636719 110.699219 C 219.398438 110.699219 220.324219 111.589844 220.324219 113.273438 C 220.324219 114.964844 219.398438 115.761719 217.636719 115.761719 Z M 217.265625 107.941406 L 212.167969 107.941406 L 212.167969 125.808594 L 215.691406 125.808594 L 215.691406 118.609375 L 217.265625 118.609375 C 221.714844 118.609375 223.847656 116.652344 223.847656 113.273438 C 223.847656 109.898438 221.714844 107.941406 217.265625 107.941406 "/>
</g>
<g clip-path="url(#clip12)" clip-rule="nonzero">
<path style=" stroke:none;fill-rule:evenodd;fill:rgb(13.72549%,12.156863%,12.54902%);fill-opacity:1;" d="M 233.300781 107.941406 L 229.6875 107.941406 L 229.6875 125.808594 L 238.957031 125.808594 L 238.957031 122.789062 L 233.300781 122.789062 L 233.300781 107.941406 "/>
</g>
<g clip-path="url(#clip13)" clip-rule="nonzero">
<path style=" stroke:none;fill-rule:evenodd;fill:rgb(13.72549%,12.156863%,12.54902%);fill-opacity:1;" d="M 245.261719 125.808594 L 248.78125 125.808594 L 248.78125 107.941406 L 245.261719 107.941406 L 245.261719 125.808594 "/>
</g>
<g clip-path="url(#clip14)" clip-rule="nonzero">
<path style=" stroke:none;fill-rule:evenodd;fill:rgb(13.72549%,12.156863%,12.54902%);fill-opacity:1;" d="M 261.386719 107.40625 C 257.957031 107.40625 255.546875 109.007812 255.546875 113.363281 L 255.546875 119.765625 C 255.546875 124.207031 257.957031 125.808594 261.386719 125.808594 C 264.910156 125.808594 267.320312 124.207031 267.320312 119.765625 L 267.320312 119.054688 L 263.796875 119.054688 L 263.796875 120.207031 C 263.796875 122.253906 262.867188 122.785156 261.386719 122.785156 C 259.996094 122.785156 259.070312 122.253906 259.070312 120.207031 L 259.070312 112.921875 C 259.070312 110.964844 259.996094 110.429688 261.386719 110.429688 C 262.867188 110.429688 263.796875 110.964844 263.796875 112.921875 L 263.796875 113.453125 L 267.320312 113.453125 L 267.320312 113.363281 C 267.320312 109.007812 264.910156 107.40625 261.386719 107.40625 "/>
</g>
<g clip-path="url(#clip15)" clip-rule="nonzero">
<path style=" stroke:none;fill-rule:evenodd;fill:rgb(13.72549%,12.156863%,12.54902%);fill-opacity:1;" d="M 275.105469 125.808594 L 278.625 125.808594 L 278.625 107.941406 L 275.105469 107.941406 L 275.105469 125.808594 "/>
</g>
<g clip-path="url(#clip16)" clip-rule="nonzero">
<path style=" stroke:none;fill-rule:evenodd;fill:rgb(13.72549%,12.156863%,12.54902%);fill-opacity:1;" d="M 285.113281 110.964844 L 289.285156 110.964844 L 289.285156 125.808594 L 292.808594 125.808594 L 292.808594 110.964844 L 296.980469 110.964844 L 296.980469 107.941406 L 285.113281 107.941406 L 285.113281 110.964844 "/>
</g>
<g clip-path="url(#clip17)" clip-rule="nonzero">
<path style=" stroke:none;fill-rule:evenodd;fill:rgb(13.72549%,12.156863%,12.54902%);fill-opacity:1;" d="M 312.179688 107.941406 L 309.121094 115.144531 L 305.96875 107.941406 L 302.171875 107.941406 L 307.265625 118.609375 L 307.265625 125.808594 L 310.882812 125.808594 L 310.882812 118.609375 L 315.980469 107.941406 L 312.179688 107.941406 "/>
</g>
<path style=" stroke:none;fill-rule:nonzero;fill:rgb(92.941176%,10.980392%,14.117647%);fill-opacity:1;" d="M 144.953125 36.742188 C 145.269531 38.25 145.316406 40.332031 143.847656 41.917969 C 141.683594 44.351562 135.390625 50.210938 135.390625 50.210938 C 135.390625 50.210938 132.847656 51.742188 134.070312 53.457031 C 134.324219 53.835938 134.726562 53.984375 135.203125 53.988281 C 135.683594 53.335938 136.390625 52.914062 136.390625 52.914062 C 136.390625 52.914062 142.6875 47.054688 144.945312 44.621094 C 147.105469 42.1875 145.792969 38.582031 145.414062 37.589844 C 145.332031 37.386719 145.175781 37.097656 144.953125 36.742188 "/>
<path style=" stroke:none;fill-rule:nonzero;fill:rgb(92.941176%,10.980392%,14.117647%);fill-opacity:1;" d="M 131.722656 35.878906 C 130.40625 36.507812 124.390625 41.105469 122.132812 42.816406 C 119.972656 44.53125 114.425781 49.398438 114.425781 49.398438 C 114.425781 49.398438 111.417969 52.011719 112.453125 53.363281 C 112.839844 53.871094 113.226562 54.109375 113.644531 54.191406 C 114.277344 53.105469 115.429688 52.101562 115.429688 52.101562 C 115.429688 52.101562 120.976562 47.238281 123.136719 45.523438 C 125.394531 43.71875 131.410156 39.210938 132.726562 38.582031 C 133.746094 38.089844 134.542969 37.605469 135.417969 37.917969 C 135.789062 37.332031 136.078125 36.539062 135.199219 35.695312 C 133.976562 34.613281 133.039062 35.246094 131.722656 35.878906 "/>
<path style=" stroke:none;fill-rule:nonzero;fill:rgb(92.941176%,10.980392%,14.117647%);fill-opacity:1;" d="M 154.28125 56.878906 C 152.964844 54.625 152.871094 53.003906 151.367188 54.085938 C 149.863281 55.078125 142.0625 59.675781 137.925781 60.847656 C 133.695312 62.019531 132.660156 62.558594 130.308594 62.199219 C 127.867188 61.75 125.238281 60.757812 124.390625 59.316406 C 123.449219 57.871094 123.261719 57.511719 122.226562 58.414062 C 121.195312 59.222656 118.183594 61.566406 115.929688 61.296875 C 113.582031 61.027344 107.75 59.675781 104.554688 53.726562 C 104.496094 53.613281 104.449219 53.511719 104.394531 53.402344 C 104.640625 54.308594 105.046875 55.304688 105.652344 56.429688 C 108.851562 62.289062 114.675781 63.730469 116.933594 64 C 119.1875 64.183594 122.199219 61.929688 123.230469 61.027344 C 124.359375 60.214844 124.453125 60.574219 125.394531 62.019531 C 126.332031 63.460938 128.871094 64.453125 131.3125 64.8125 C 133.664062 65.265625 134.699219 64.722656 138.929688 63.460938 C 143.066406 62.289062 150.867188 57.78125 152.371094 56.699219 C 153.875 55.707031 154.0625 57.332031 155.285156 59.585938 C 156.601562 61.839844 159.703125 62.648438 162.429688 62.832031 C 165.25 63.101562 166.5625 62.378906 168.351562 61.660156 C 170.136719 60.847656 174.933594 58.503906 176.339844 57.601562 C 177.75 56.699219 178.03125 56.613281 178.597656 57.964844 C 179.160156 59.40625 179.253906 60.488281 183.578125 63.460938 C 187.808594 66.347656 194.953125 64.722656 196.644531 64.09375 C 198.242188 63.550781 201.34375 62.109375 202.097656 61.660156 C 202.847656 61.117188 203.601562 62.46875 205.199219 64.09375 C 206.265625 65.0625 207.972656 65.378906 209.582031 65.144531 C 210.816406 63.5625 212.183594 61.75 212.183594 61.75 C 212.183594 61.75 213.21875 60.214844 211.152344 61.566406 C 209.082031 62.832031 205.792969 62.921875 204.195312 61.386719 C 202.5 59.765625 201.84375 58.503906 201.09375 58.953125 C 200.339844 59.40625 197.238281 60.9375 195.546875 61.480469 C 193.949219 62.019531 186.804688 63.640625 182.574219 60.757812 C 178.25 57.871094 178.15625 56.699219 177.59375 55.347656 C 177.027344 53.90625 176.746094 53.996094 175.335938 54.898438 C 173.925781 55.890625 169.132812 58.140625 167.347656 58.953125 C 165.558594 59.765625 164.246094 60.398438 161.425781 60.214844 C 158.699219 59.945312 155.597656 59.132812 154.28125 56.878906 "/>
<path style=" stroke:none;fill-rule:nonzero;fill:rgb(92.941176%,10.980392%,14.117647%);fill-opacity:1;" d="M 248.75 40.472656 C 246.589844 42.457031 239.257812 48.949219 236.4375 51.652344 C 233.617188 54.265625 225.0625 63.011719 223.558594 64.722656 C 222.054688 66.527344 218.011719 70.3125 219.703125 70.492188 C 220.003906 70.523438 220.648438 70.628906 221.523438 70.785156 C 222.503906 69.605469 223.828125 68.261719 224.5625 67.425781 C 226.066406 65.714844 234.621094 56.972656 237.441406 54.265625 C 240.261719 51.652344 247.59375 45.070312 249.753906 43.089844 C 251.566406 41.5 249.554688 40.613281 248.851562 40.367188 C 248.816406 40.402344 248.789062 40.4375 248.75 40.472656 "/>
<path style=" stroke:none;fill-rule:nonzero;fill:rgb(92.941176%,10.980392%,14.117647%);fill-opacity:1;" d="M 225.816406 34.886719 C 223.558594 37.046875 218.292969 42.457031 217.167969 43.808594 C 216.039062 45.164062 211.527344 50.121094 210.679688 51.652344 C 209.835938 53.09375 208.707031 54.808594 209.835938 55.4375 C 210.101562 55.605469 210.464844 55.679688 210.898438 55.671875 C 211.136719 55.214844 211.425781 54.734375 211.683594 54.265625 C 212.53125 52.824219 217.042969 47.867188 218.167969 46.515625 C 219.296875 45.164062 224.5625 39.753906 226.820312 37.5 C 228.148438 36.167969 227.199219 35.347656 225.855469 34.832031 C 225.84375 34.851562 225.832031 34.867188 225.816406 34.886719 "/>
<path style=" stroke:none;fill-rule:nonzero;fill:rgb(92.941176%,10.980392%,14.117647%);fill-opacity:1;" d="M 72.941406 9.011719 C 72.941406 9.011719 75.292969 11.445312 76.324219 12.347656 C 77.265625 13.339844 78.957031 15.59375 81.308594 14.601562 C 83.753906 13.609375 96.066406 12.347656 100.105469 11.898438 C 101.820312 11.707031 103.445312 11.695312 104.75 11.742188 C 105.875 10.261719 106.625 9.28125 106.625 9.28125 C 106.625 9.28125 103.144531 8.742188 99.101562 9.195312 C 95.058594 9.734375 82.75 10.90625 80.304688 11.988281 C 77.953125 12.980469 76.261719 10.636719 75.320312 9.734375 C 74.746094 9.179688 73.765625 8.179688 73.003906 7.40625 C 72.128906 8.050781 72.941406 9.011719 72.941406 9.011719 "/>
<path style=" stroke:none;fill-rule:nonzero;fill:rgb(92.941176%,10.980392%,14.117647%);fill-opacity:1;" d="M 201.28125 76.441406 C 202.878906 75 200.339844 75.359375 199.496094 75.179688 C 198.648438 75.089844 182.480469 74.191406 177.6875 74.28125 C 172.890625 74.367188 156.070312 74.367188 150.050781 74.730469 C 144.035156 75.179688 121.945312 77.164062 116.117188 78.15625 C 110.289062 79.058594 86.882812 82.484375 83.6875 83.113281 C 80.492188 83.742188 74.195312 84.824219 74.195312 84.824219 C 74.195312 84.824219 71 85.640625 67.894531 84.195312 C 66.75 83.660156 65.347656 83.054688 64.25 82.4375 C 61.5625 83.769531 66.03125 85.566406 68.898438 86.898438 C 72.097656 88.25 75.199219 87.53125 75.199219 87.53125 C 75.199219 87.53125 81.496094 86.359375 84.691406 85.726562 C 87.886719 85.097656 111.386719 81.761719 117.214844 80.769531 C 123.042969 79.867188 145.039062 77.792969 151.054688 77.433594 C 157.070312 77.074219 173.988281 77.074219 178.691406 76.984375 C 183.21875 76.898438 197.972656 77.617188 200.226562 77.847656 C 200.636719 77.222656 201 76.730469 201.28125 76.441406 "/>
<path style=" stroke:none;fill-rule:nonzero;fill:rgb(92.941176%,10.980392%,14.117647%);fill-opacity:1;" d="M 253.332031 81.84375 C 252.84375 82.867188 251.601562 85.351562 251.007812 85.640625 C 250.253906 85.90625 248.9375 85.90625 246.023438 84.734375 C 243.109375 83.566406 229.667969 80.140625 226.003906 79.507812 C 222.429688 78.789062 214.15625 77.34375 214.15625 77.34375 C 214.15625 77.34375 213.125 76.714844 211.429688 79.417969 C 209.648438 82.03125 204.382812 89.695312 204.382812 89.695312 C 204.382812 89.695312 204.007812 90.777344 203.066406 90.777344 C 202.03125 90.777344 197.707031 90.507812 196.109375 89.605469 C 196.105469 89.601562 196.101562 89.601562 196.097656 89.597656 C 196.058594 89.660156 196.019531 89.734375 195.988281 89.785156 C 195.046875 91.496094 195.421875 91.40625 197.113281 92.308594 C 198.710938 93.210938 203.035156 93.480469 204.070312 93.480469 C 205.011719 93.480469 205.386719 92.398438 205.386719 92.398438 C 205.386719 92.398438 210.742188 84.734375 212.433594 82.03125 C 214.128906 79.417969 215.164062 80.046875 215.164062 80.046875 C 215.164062 80.046875 223.433594 81.398438 227.003906 82.121094 C 230.671875 82.84375 244.113281 86.269531 247.027344 87.441406 C 250.035156 88.613281 251.351562 88.613281 252.105469 88.25 C 252.761719 87.980469 254.640625 84.105469 254.640625 84.105469 C 254.753906 82.9375 254.078125 82.269531 253.332031 81.84375 "/>
<path style=" stroke:none;fill-rule:nonzero;fill:rgb(92.941176%,10.980392%,14.117647%);fill-opacity:1;" d="M 218.386719 17.9375 C 216.039062 19.648438 203.914062 29.207031 200.625 32.722656 C 197.429688 36.238281 190.847656 43.539062 188.308594 46.785156 C 185.863281 50.121094 184.265625 51.652344 186.148438 53.816406 C 186.234375 53.921875 186.324219 54.015625 186.414062 54.109375 C 186.699219 52.867188 187.910156 51.535156 189.40625 49.488281 C 191.851562 46.152344 198.433594 38.941406 201.722656 35.425781 C 205.011719 31.910156 217.042969 22.355469 219.390625 20.644531 C 221.742188 18.929688 220.332031 18.296875 220.332031 18.296875 C 220.332031 18.296875 219.699219 17.929688 218.925781 17.503906 C 218.769531 17.640625 218.601562 17.78125 218.386719 17.9375 "/>
<path style=" stroke:none;fill-rule:nonzero;fill:rgb(92.941176%,10.980392%,14.117647%);fill-opacity:1;" d="M 194.792969 14.871094 C 192.257812 16.945312 183.417969 24.335938 181.261719 26.589844 C 179.003906 28.847656 172.609375 35.246094 170.542969 37.589844 C 168.472656 39.933594 162.648438 46.875 161.800781 48.226562 C 160.859375 49.578125 160.390625 51.113281 161.800781 52.011719 C 161.898438 52.082031 162.003906 52.136719 162.113281 52.1875 C 162.273438 51.769531 162.515625 51.347656 162.804688 50.929688 C 163.746094 49.578125 169.476562 42.636719 171.546875 40.292969 C 173.613281 37.949219 180.003906 31.550781 182.265625 29.296875 C 184.421875 26.953125 193.261719 19.5625 195.890625 17.578125 C 198.1875 15.769531 195.984375 14.578125 195.378906 14.304688 C 195.230469 14.484375 195.046875 14.675781 194.792969 14.871094 "/>
<path style=" stroke:none;fill-rule:nonzero;fill:rgb(92.941176%,10.980392%,14.117647%);fill-opacity:1;" d="M 149.582031 8.5625 C 149.582031 8.5625 150.519531 10.277344 147.230469 10.003906 C 143.941406 9.734375 138.675781 9.554688 135.011719 9.28125 C 131.441406 9.011719 122.695312 8.382812 121.378906 8.472656 C 120.066406 8.5625 119.78125 8.472656 119.03125 9.554688 C 118.28125 10.546875 114.800781 15.050781 113.957031 16.136719 C 113.109375 17.214844 109.445312 21.996094 106.339844 26.140625 C 103.238281 30.289062 99.292969 35.605469 95.8125 41.105469 C 92.335938 46.605469 89.234375 51.652344 87.917969 53.90625 C 86.601562 56.160156 86.039062 57.601562 85.753906 58.140625 C 85.570312 58.683594 85.285156 59.675781 83.78125 59.765625 C 82.183594 59.765625 74.851562 59.585938 74.851562 59.585938 C 74.851562 59.585938 74.652344 59.597656 74.378906 59.558594 C 73.082031 62.4375 75.855469 62.199219 75.855469 62.199219 C 75.855469 62.199219 83.1875 62.46875 84.785156 62.378906 C 86.289062 62.289062 86.574219 61.386719 86.851562 60.847656 C 87.042969 60.308594 87.605469 58.863281 88.921875 56.613281 C 90.238281 54.265625 93.433594 49.21875 96.816406 43.71875 C 100.296875 38.222656 104.242188 32.992188 107.34375 28.84375 C 110.449219 24.605469 114.113281 19.921875 114.960938 18.839844 C 115.804688 17.664062 119.28125 13.25 120.035156 12.167969 C 120.785156 11.175781 121.164062 11.265625 122.382812 11.175781 C 123.699219 11.085938 132.445312 11.714844 136.015625 11.988281 C 139.683594 12.167969 145.039062 12.4375 148.234375 12.710938 C 151.523438 12.890625 150.585938 11.265625 150.585938 11.265625 C 150.585938 11.265625 150.773438 9.195312 149.832031 6.847656 C 149.671875 6.460938 149.507812 6.148438 149.351562 5.894531 C 149.683594 7.414062 149.582031 8.5625 149.582031 8.5625 "/>
<path style=" stroke:none;fill-rule:evenodd;fill:rgb(13.72549%,12.156863%,12.54902%);fill-opacity:1;" d="M 250.914062 78.515625 C 251.664062 78.96875 253.828125 79.507812 253.542969 81.402344 C 253.542969 81.402344 251.761719 85.277344 251.007812 85.640625 C 250.253906 85.90625 248.9375 85.90625 246.023438 84.734375 C 243.109375 83.566406 229.667969 80.140625 226.003906 79.507812 C 222.429688 78.789062 214.15625 77.34375 214.15625 77.34375 C 214.15625 77.34375 213.125 76.714844 211.429688 79.417969 C 209.648438 82.03125 204.382812 89.695312 204.382812 89.695312 C 204.382812 89.695312 204.007812 90.777344 203.066406 90.777344 C 202.03125 90.777344 197.707031 90.507812 196.109375 89.605469 C 194.417969 88.792969 194.042969 88.882812 194.984375 87.082031 C 196.015625 85.367188 199.777344 77.976562 201.28125 76.441406 C 202.878906 75 200.339844 75.359375 199.496094 75.179688 C 198.648438 75.089844 182.480469 74.191406 177.6875 74.28125 C 172.890625 74.367188 156.070312 74.367188 150.050781 74.730469 C 144.035156 75.179688 121.945312 77.164062 116.117188 78.15625 C 110.289062 79.058594 86.882812 82.484375 83.6875 83.113281 C 80.492188 83.742188 74.195312 84.824219 74.195312 84.824219 C 74.195312 84.824219 71 85.640625 67.894531 84.195312 C 64.792969 82.753906 59.8125 80.769531 64.042969 79.507812 C 68.363281 78.15625 89.140625 74.007812 95.625 73.015625 C 102.113281 72.117188 122.320312 69.140625 130.875 68.691406 C 139.335938 68.238281 162.269531 66.976562 170.917969 67.066406 C 179.472656 67.15625 191.410156 67.699219 196.484375 68.058594 C 201.5625 68.421875 204.945312 68.691406 205.886719 68.867188 C 206.921875 69.050781 207.015625 68.332031 207.957031 67.15625 C 208.988281 65.988281 212.183594 61.75 212.183594 61.75 C 212.183594 61.75 213.21875 60.214844 211.152344 61.566406 C 209.082031 62.832031 205.792969 62.921875 204.195312 61.386719 C 202.5 59.765625 201.84375 58.503906 201.09375 58.953125 C 200.339844 59.40625 197.238281 60.9375 195.546875 61.480469 C 193.949219 62.019531 186.804688 63.640625 182.574219 60.757812 C 178.25 57.871094 178.15625 56.699219 177.59375 55.347656 C 177.027344 53.90625 176.746094 53.996094 175.335938 54.898438 C 173.925781 55.890625 169.132812 58.140625 167.347656 58.953125 C 165.558594 59.765625 164.246094 60.398438 161.425781 60.214844 C 158.699219 59.945312 155.597656 59.132812 154.28125 56.878906 C 152.964844 54.625 152.871094 53.003906 151.367188 54.085938 C 149.863281 55.078125 142.0625 59.675781 137.925781 60.847656 C 133.695312 62.019531 132.660156 62.558594 130.308594 62.199219 C 127.867188 61.75 125.238281 60.757812 124.390625 59.316406 C 123.449219 57.871094 123.261719 57.511719 122.226562 58.414062 C 121.195312 59.222656 118.183594 61.566406 115.929688 61.296875 C 113.582031 61.027344 107.75 59.675781 104.554688 53.726562 C 101.359375 47.867188 103.710938 45.339844 106.53125 42.457031 C 109.445312 39.480469 114.519531 35.15625 114.519531 35.15625 C 114.519531 35.15625 120.820312 30.558594 122.980469 29.472656 C 125.140625 28.484375 128.433594 26.503906 130.6875 26.320312 C 132.847656 26.230469 136.042969 26.410156 139.148438 28.847656 C 142.25 31.28125 143.941406 33.984375 144.410156 34.972656 C 144.789062 35.878906 146.101562 39.480469 143.847656 41.917969 C 141.683594 44.351562 135.390625 50.210938 135.390625 50.210938 C 135.390625 50.210938 132.847656 51.742188 134.070312 53.457031 C 135.199219 55.167969 139.335938 52.375 140.652344 51.382812 C 142.0625 50.480469 149.300781 44.257812 151.554688 42.1875 C 153.71875 40.023438 167.816406 26.320312 169.039062 25.148438 C 170.261719 23.886719 181.917969 12.167969 183.703125 11.085938 C 185.394531 10.003906 186.054688 9.195312 189.152344 9.824219 C 192.257812 10.453125 194.136719 11.535156 194.136719 11.535156 C 194.136719 11.535156 197.429688 12.796875 194.792969 14.871094 C 192.257812 16.945312 183.417969 24.335938 181.261719 26.589844 C 179.003906 28.847656 172.609375 35.246094 170.542969 37.589844 C 168.472656 39.933594 162.648438 46.875 161.800781 48.226562 C 160.859375 49.578125 160.390625 51.113281 161.800781 52.011719 C 163.210938 53.003906 165.65625 51.921875 168.289062 49.847656 C 170.917969 47.6875 178.535156 41.105469 181.261719 38.398438 C 183.890625 35.695312 198.554688 21.8125 199.871094 20.730469 C 201.1875 19.558594 207.957031 14.148438 207.957031 14.148438 C 207.957031 14.148438 208.800781 12.980469 210.773438 12.980469 C 212.75 12.980469 214.722656 13.339844 215.945312 13.878906 C 217.167969 14.332031 219.328125 15.683594 219.328125 15.683594 C 219.328125 15.683594 220.738281 16.222656 218.386719 17.9375 C 216.039062 19.648438 203.914062 29.207031 200.625 32.722656 C 197.429688 36.238281 190.847656 43.539062 188.308594 46.785156 C 185.863281 50.121094 184.265625 51.652344 186.148438 53.816406 C 188.027344 56.066406 190.28125 55.53125 191.410156 55.167969 C 192.539062 54.808594 196.296875 52.105469 199.027344 49.308594 C 201.75 46.605469 210.304688 37.5 211.152344 36.324219 C 212.089844 35.246094 215.191406 32.089844 215.191406 32.089844 C 215.191406 32.089844 215.851562 30.828125 217.636719 30.828125 C 219.421875 30.828125 220.550781 31.097656 222.335938 31.457031 C 224.121094 31.910156 227.976562 32.628906 225.816406 34.886719 C 223.558594 37.046875 218.292969 42.457031 217.167969 43.808594 C 216.039062 45.164062 211.527344 50.121094 210.679688 51.652344 C 209.835938 53.09375 208.707031 54.808594 209.835938 55.4375 C 210.960938 56.160156 213.875 55.167969 216.695312 53.546875 C 219.609375 52.011719 223.839844 49.308594 227.507812 46.0625 C 231.171875 42.726562 237.09375 37.410156 237.09375 37.410156 C 237.09375 37.410156 238.035156 35.15625 242.359375 36.144531 C 246.589844 37.046875 247.621094 37.589844 247.621094 37.589844 C 247.621094 37.589844 250.914062 38.492188 248.75 40.472656 C 246.589844 42.457031 239.257812 48.949219 236.4375 51.652344 C 233.617188 54.265625 225.0625 63.011719 223.558594 64.722656 C 222.054688 66.527344 218.011719 70.3125 219.703125 70.492188 C 221.394531 70.671875 234.085938 73.199219 237.09375 74.007812 C 240.101562 74.730469 250.066406 78.15625 250.914062 78.515625 Z M 119.691406 -0.00390625 L 118.136719 -0.00390625 C 111.523438 0.0820312 95.203125 1.019531 91.585938 1.347656 C 87.636719 1.710938 75.132812 3.875 72.878906 4.414062 C 70.621094 4.957031 71.9375 6.308594 71.9375 6.308594 C 71.9375 6.308594 74.289062 8.742188 75.320312 9.734375 C 76.261719 10.636719 77.953125 12.980469 80.304688 11.988281 C 82.75 10.90625 95.058594 9.734375 99.101562 9.195312 C 103.144531 8.742188 106.625 9.28125 106.625 9.28125 C 106.625 9.28125 95.90625 23.347656 94.214844 25.6875 C 92.429688 27.945312 83.3125 40.5625 81.527344 43.179688 C 79.738281 45.882812 75.511719 52.914062 73.535156 56.339844 C 71.65625 59.765625 74.851562 59.585938 74.851562 59.585938 C 74.851562 59.585938 82.183594 59.765625 83.78125 59.765625 C 85.285156 59.675781 85.570312 58.683594 85.753906 58.140625 C 86.039062 57.601562 86.601562 56.160156 87.917969 53.90625 C 89.234375 51.652344 92.335938 46.605469 95.8125 41.105469 C 99.292969 35.605469 103.238281 30.289062 106.339844 26.140625 C 109.445312 21.996094 113.109375 17.214844 113.957031 16.136719 C 114.800781 15.050781 118.28125 10.546875 119.03125 9.554688 C 119.78125 8.472656 120.066406 8.5625 121.378906 8.472656 C 122.695312 8.382812 131.441406 9.011719 135.011719 9.28125 C 138.675781 9.554688 143.941406 9.734375 147.230469 10.003906 C 150.519531 10.277344 149.582031 8.5625 149.582031 8.5625 C 149.582031 8.5625 149.769531 6.488281 148.828125 4.234375 C 147.792969 1.890625 146.949219 2.253906 146.949219 2.253906 C 142.25 0.898438 124.671875 -0.00390625 119.691406 -0.00390625 Z M 127.019531 47.054688 C 129.464844 45.339844 134.726562 39.03125 135.011719 38.492188 C 135.390625 37.949219 136.421875 36.871094 135.199219 35.695312 C 133.976562 34.613281 133.039062 35.246094 131.722656 35.878906 C 130.40625 36.507812 124.390625 41.105469 122.132812 42.816406 C 119.972656 44.53125 114.425781 49.398438 114.425781 49.398438 C 114.425781 49.398438 111.417969 52.011719 112.453125 53.363281 C 113.488281 54.714844 114.519531 54.175781 116.117188 53.726562 C 117.808594 53.273438 124.484375 48.765625 127.019531 47.054688 "/>
</g>
</svg>
